# xmcd
#
# Track frame offsets: 
#        150
#        17056
#        36714
#        53798
#        69206
#        86975
#        105020
#        120527
#        137116
#        153666
#        171400
#        187881
#        202910
#        220428
#        238583
#        256779
#        273071
#        287999
#        307418
#        321937
#
# Disc length: 4555 seconds
#
# Revision: 0
# Processed by: cddbd v1.5.2PL0 Copyright (c) Steve Scherf et al.
# Submitted via: ExactAudioCopy v0.95b4
#
DISCID=2811c914
DTITLE=Patriarch - Son Of A Refugee
DYEAR=2006
DGENRE=Hip-Hop
TTITLE0=Dedication to the World
TTITLE1=Closing Pandora's Box
TTITLE2=Why Do They Hate Me?
TTITLE3=Never Leave Me Alone
TTITLE4=P-Stine Ryders
TTITLE5=Judgement Day
TTITLE6=Mobilize Unite (feat. San Quinn)
TTITLE7=Dirty Game
TTITLE8=Dirty Game
TTITLE9=Aywah
TTITLE10=Gangsta and Politiks (feat. Kurupt and Ghazi)
TTITLE11=Son of a Refugee
TTITLE12=Everybody's Got a Little Devil in 'Em
TTITLE13=Tango with the Church
TTITLE14=Crunk Revolution
TTITLE15=The Streets Got Our Kids (feat. The Outlawz)
TTITLE16=If I Die Tonight
TTITLE17=Don't Let 'Em (feat. Dead Prez)
TTITLE18=Take Me Away
TTITLE19=Palestine
EXTD=
EXTT0=
EXTT1=
EXTT2=
EXTT3=
EXTT4=
EXTT5=
EXTT6=
EXTT7=
EXTT8=
EXTT9=
EXTT10=
EXTT11=
EXTT12=
EXTT13=
EXTT14=
EXTT15=
EXTT16=
EXTT17=
EXTT18=
EXTT19=
PLAYORDER=
